<svg width="40" height="40" viewBox="0 0 40 40" fill="none" xmlns="http://www.w3.org/2000/svg">
<g clip-path="url(#clip0_73_24)">
<path d="M26.776 5H13.224C8.6893 5 5 8.6893 5 13.2241V26.776C5 31.3108 8.6893 35 13.224 35H26.776C31.3108 35 35 31.3108 35 26.776V13.2241C35 8.6893 31.3108 5 26.776 5ZM33.2284 26.776C33.2284 30.3338 30.3339 33.2284 26.776 33.2284H13.224C9.66617 33.2284 6.77164 30.3339 6.77164 26.776V13.2241C6.77164 9.66617 9.66617 6.77164 13.224 6.77164H26.776C30.3339 6.77164 33.2284 9.66617 33.2284 13.2241V26.776Z" fill="#F3F4F9"/>
<path d="M20 11.7717C15.4628 11.7717 11.7716 15.4629 11.7716 20C11.7716 24.5372 15.4628 28.2284 20 28.2284C24.5371 28.2284 28.2284 24.5371 28.2284 20C28.2284 15.4628 24.5371 11.7717 20 11.7717ZM20 26.4568C16.4397 26.4568 13.5432 23.5603 13.5432 20C13.5432 16.4397 16.4397 13.5432 20 13.5432C23.5603 13.5432 26.4568 16.4398 26.4568 20C26.4568 23.5603 23.5603 26.4568 20 26.4568Z" fill="#F3F4F9"/>
<path d="M28.7205 8.77948C27.3421 8.77948 26.2206 9.90102 26.2206 11.2795C26.2206 12.658 27.3421 13.7795 28.7205 13.7795C30.099 13.7795 31.2205 12.6579 31.2205 11.2794C31.2205 9.90096 30.099 8.77948 28.7205 8.77948ZM28.7205 12.0078C28.319 12.0078 27.9922 11.681 27.9922 11.2794C27.9922 10.8778 28.319 10.5511 28.7205 10.5511C29.1221 10.5511 29.4489 10.8779 29.4489 11.2794C29.4489 11.681 29.1221 12.0078 28.7205 12.0078Z" fill="#F3F4F9"/>
</g>
<defs>
<clipPath id="clip0_73_24">
<rect width="30" height="30" fill="white" transform="translate(5 5)"/>
</clipPath>
</defs>
</svg>
